name C:\Users\u0101727\Documents\MyRepositories\predictivesimulations\OpenSimModel\subject1\EMG\EMG_gait_63.mot
datacolumns 25
datarows 22
range 0.00100000 0.02200000
endheader
time	HamL_r	TA_r	PerL_r	GL_r	HamM_r	Sol_r	VL_r	VM_r	PerB_l	TA_l	PerL_l	GL_l	GM_l	Sol_l	VL_l	VM_l	AddL_l	RF_l	TFL_l	GluMed_l	HamL_l	HamM_l	GluMed_r	RF_r	
          0.00100000	          0.00100000	          0.00397889	          0.00193019	          0.00100000	          0.00100000	          0.00100000	          0.00514762	          0.00100000	          0.00100000	          0.01192685	          0.00640696	          0.00100000	          0.00100000	          0.00100000	          0.00100000	          0.00100000	          0.00100000	          0.00100000	          0.00100000	          0.00146246	          0.00246253	          0.00178832	          0.00727833	          0.00278256	
          0.00200000	          0.00100000	          0.00399721	          0.00204831	          0.00100000	          0.00100000	          0.00100000	          0.00545941	          0.00100000	          0.00100000	          0.01402598	          0.00692439	          0.00100000	          0.00100000	          0.00100000	          0.00100000	          0.00100000	          0.00100000	          0.00100000	          0.00100000	          0.00170319	          0.00257487	          0.00191414	          0.00781937	          0.00301612	
          0.00300000	          0.00100000	          0.00401675	          0.00216736	          0.00100000	          0.00100000	          0.00100000	          0.00577070	          0.00100000	          0.00100000	          0.01614440	          0.00744788	          0.00100000	          0.00100000	          0.00100000	          0.00100000	          0.00100000	          0.00100000	          0.00100000	          0.00100000	          0.00194260	          0.00268820	          0.00204001	          0.00835788	          0.00324982	
          0.00400000	          0.00100000	          0.00403734	          0.00228685	          0.00100000	          0.00100000	          0.00100000	          0.00607896	          0.00100000	          0.00100000	          0.01827684	          0.00797572	          0.00100000	          0.00100000	          0.00100000	          0.00100000	          0.00107481	          0.00100000	          0.00100000	          0.00100000	          0.00217972	          0.00280195	          0.00216526	          0.00889154	          0.00348254	
          0.00500000	          0.00100000	          0.00405884	          0.00240630	          0.00100000	          0.00100000	          0.00100000	          0.00638205	          0.00100000	          0.00100000	          0.02041801	          0.00850640	          0.00100000	          0.00114020	          0.00123324	          0.00100000	          0.00117897	          0.00100000	          0.00100000	          0.00100000	          0.00241365	          0.00291560	          0.00228934	          0.00941810	          0.00371325	
          0.00600000	          0.00100000	          0.00408109	          0.00252526	          0.00100000	          0.00100000	          0.00100000	          0.00667840	          0.00100000	          0.00100000	          0.02256262	          0.00903859	          0.00100000	          0.00172866	          0.00210561	          0.00110394	          0.00128187	          0.00100000	          0.00100000	          0.00100000	          0.00264351	          0.00302866	          0.00241178	          0.00993543	          0.00394102	
          0.00700000	          0.00100000	          0.00410391	          0.00264326	          0.00100000	          0.00100000	          0.00100000	          0.00696684	          0.00100000	          0.00100000	          0.02470553	          0.00957108	          0.00100000	          0.00229856	          0.00295522	          0.00136299	          0.00138314	          0.00100000	          0.00100000	          0.00100000	          0.00286844	          0.00314069	          0.00253218	          0.01044152	          0.00416492	
          0.00800000	          0.00100000	          0.00412706	          0.00275988	          0.00100000	          0.00100000	          0.00199798	          0.00724641	          0.00110129	          0.00100000	          0.02684178	          0.01010276	          0.00136989	          0.00284848	          0.00378036	          0.00161598	          0.00148249	          0.00100000	          0.00100000	          0.00111677	          0.00308762	          0.00325128	          0.00265016	          0.01093455	          0.00438411	
          0.00900000	          0.00118884	          0.00415031	          0.00287465	          0.00100000	          0.00100000	          0.00470577	          0.00751624	          0.00126824	          0.00100000	          0.02896650	          0.01063254	          0.00181011	          0.00337734	          0.00457973	          0.00186237	          0.00157971	          0.00100000	          0.00100000	          0.00166386	          0.00330028	          0.00336003	          0.00276542	          0.01141283	          0.00459776	
          0.01000000	          0.00139192	          0.00417338	          0.00298710	          0.00117283	          0.00100000	          0.00731862	          0.00777553	          0.00143128	          0.00100000	          0.03107481	          0.01115937	          0.00223756	          0.00388444	          0.00535233	          0.00210173	          0.00167467	          0.00100000	          0.00136170	          0.00219291	          0.00350574	          0.00346658	          0.00287776	          0.01187496	          0.00480509	
          0.01100000	          0.00158901	          0.00419602	          0.00309676	          0.00135463	          0.00100000	          0.00983327	          0.00802365	          0.00159020	          0.00100000	          0.03316189	          0.01168226	          0.00265182	          0.00436943	          0.00609730	          0.00233366	          0.00176732	          0.00100000	          0.00172630	          0.00270337	          0.00370335	          0.00357061	          0.00298704	          0.01231985	          0.00500539	
          0.01200000	          0.00177989	          0.00421797	          0.00320316	          0.00153170	          0.00100000	          0.01224659	          0.00826007	          0.00174483	          0.00144262	          0.03522336	          0.01220025	          0.00305261	          0.00483213	          0.00681389	          0.00255781	          0.00185764	          0.00100000	          0.00207438	          0.00319476	          0.00389258	          0.00367187	          0.00309317	          0.01274668	          0.00519801	
          0.01300000	          0.00196442	          0.00423900	          0.00330591	          0.00170382	          0.00100000	          0.01455564	          0.00848435	          0.00189497	          0.00260315	          0.03725542	          0.01271236	          0.00343964	          0.00527243	          0.00750142	          0.00277379	          0.00194564	          0.00100000	          0.00240596	          0.00366667	          0.00407293	          0.00377014	          0.00319608	          0.01315492	          0.00538237	
          0.01400000	          0.00214248	          0.00425894	          0.00340471	          0.00187075	          0.00105455	          0.01675776	          0.00869610	          0.00204047	          0.00371871	          0.03925473	          0.01321763	          0.00381265	          0.00569029	          0.00815929	          0.00298122	          0.00203136	          0.00100000	          0.00272108	          0.00411873	          0.00424401	          0.00386526	          0.00329572	          0.01354454	          0.00555793	
          0.01500000	          0.00231397	          0.00427774	          0.00349932	          0.00203223	          0.00124555	          0.01885036	          0.00889503	          0.00218115	          0.00478926	          0.04121830	          0.01371508	          0.00417141	          0.00608572	          0.00878708	          0.00317972	          0.00211479	          0.00100000	          0.00301992	          0.00455059	          0.00440542	          0.00395705	          0.00339210	          0.01391606	          0.00572424	
          0.01600000	          0.00247876	          0.00429541	          0.00358951	          0.00218800	          0.00143142	          0.02083094	          0.00908107	          0.00231686	          0.00581487	          0.04314336	          0.01420387	          0.00451578	          0.00645875	          0.00938449	          0.00336897	          0.00219594	          0.00100000	          0.00330277	          0.00496199	          0.00455679	          0.00404533	          0.00348530	          0.01427027	          0.00588106	
          0.01700000	          0.00263674	          0.00431195	          0.00367516	          0.00233779	          0.00161211	          0.02269740	          0.00925437	          0.00244745	          0.00679573	          0.04502712	          0.01468345	          0.00484568	          0.00680946	          0.00995138	          0.00354871	          0.00227477	          0.00100000	          0.00356995	          0.00535262	          0.00469775	          0.00412998	          0.00357539	          0.01460805	          0.00602825	
          0.01800000	          0.00278776	          0.00432736	          0.00375627	          0.00248133	          0.00178756	          0.02444876	          0.00941520	          0.00257281	          0.00773214	          0.04686668	          0.01515348	          0.00516113	          0.00713803	          0.01048771	          0.00371878	          0.00235125	          0.00140780	          0.00382183	          0.00572222	          0.00482802	          0.00421086	          0.00366243	          0.01493027	          0.00616578	
          0.01900000	          0.00293172	          0.00434162	          0.00383296	          0.00261832	          0.00195769	          0.02608563	          0.00956390	          0.00269282	          0.00862458	          0.04865905	          0.01561375	          0.00546227	          0.00744484	          0.01099355	          0.00387904	          0.00242536	          0.00187469	          0.00405880	          0.00607057	          0.00494750	          0.00428786	          0.00374647	          0.01523774	          0.00629367	
          0.02000000	          0.00306853	          0.00435472	          0.00390540	          0.00274849	          0.00212244	          0.02761018	          0.00970080	          0.00280738	          0.00947366	          0.05040140	          0.01606413	          0.00574940	          0.00773052	          0.01146896	          0.00402939	          0.00249710	          0.00231681	          0.00428128	          0.00639755	          0.00505625	          0.00436086	          0.00382753	          0.01553117	          0.00641203	
          0.02100000	          0.00319815	          0.00436666	          0.00397378	          0.00287168	          0.00228176	          0.02902591	          0.00982623	          0.00291647	          0.01028000	          0.05209126	          0.01650453	          0.00602288	          0.00799589	          0.01191413	          0.00416975	          0.00256650	          0.00273440	          0.00448975	          0.00670321	          0.00515447	          0.00442976	          0.00390570	          0.01581121	          0.00652104	
          0.02200000	          0.00332066	          0.00437739	          0.00403823	          0.00298783	          0.00243560	          0.03033749	          0.00994050	          0.00302008	          0.01104421	          0.05372682	          0.01693484	          0.00628316	          0.00824181	          0.01232936	          0.00430007	          0.00263362	          0.00312775	          0.00468473	          0.00698768	          0.00524247	          0.00449458	          0.00398110	          0.01607847	          0.00662088	
